<?xml version="1.0" encoding="iso-8859-1"?>
<!-- Generator: Adobe Illustrator 19.0.0, SVG Export Plug-In . SVG Version: 6.00 Build 0)  -->
<svg version="1.1" id="Layer_1" xmlns="http://www.w3.org/2000/svg" xmlns:xlink="http://www.w3.org/1999/xlink" x="0px" y="0px"
	 viewBox="0 0 496.2 496.2" style="enable-background:new 0 0 496.2 496.2;" xml:space="preserve">
<g>
	<path style="fill:#7C9193;" d="M221,402.923c-0.8,0.8-3.2,0.8-4,0l0,0c-0.8-0.8-0.8-3.2,0-4l47.2-47.2c0.8-0.8,3.2-0.8,4,0l0,0
		c0.8,0.8,0.8,3.2,0,4L221,402.923z"/>
	<path style="fill:#7C9193;" d="M365,402.923c0.8,0.8,3.2,0.8,4,0l0,0c0.8-0.8,0.8-3.2,0-4l-47.2-47.2c-0.8-0.8-3.2-0.8-4,0l0,0
		c-0.8,0.8-0.8,3.2,0,4L365,402.923z"/>
</g>
<path style="fill:#990037;" d="M229,244.523c0,7.2-5.6,12.8-12.8,12.8H29.8c-7.2,0-12.8-5.6-12.8-12.8l0,0c0-7.2,5.6-12.8,12.8-12.8
	h186.4C223.4,231.723,229,238.123,229,244.523L229,244.523z"/>
<circle style="fill:#BC043D;" cx="299.4" cy="244.523" r="128.8"/>
<path style="fill:#990037;" d="M428.2,244.523c0,71.2-57.6,128.8-128.8,128.8s-128.8-57.6-128.8-128.8"/>
<path style="fill:#359CBC;" d="M303.4,116.523v128.8h124.8v-0.8C428.2,174.923,372.2,118.123,303.4,116.523z"/>
<path style="fill:#43B9DD;" d="M428.2,245.323L428.2,245.323c0-70.4-55.2-127.2-124.8-128.8"/>
<circle style="fill:#990037;" cx="51.4" cy="244.523" r="34.4"/>
<path style="fill:#BC043D;" d="M17,244.523c0-19.2,15.2-34.4,34.4-34.4"/>
<path style="fill:#7C9193;" d="M293,442.923c-32.8,0-64-12.8-87.2-36c-3.2-3.2-3.2-8,0-11.2s8-3.2,11.2,0c20,20,47.2,31.2,76,31.2
	s55.2-11.2,76-31.2c3.2-3.2,8-3.2,11.2,0s3.2,8,0,11.2C357,430.123,325.8,442.923,293,442.923z"/>
<path style="fill:#94A9AA;" d="M369,394.923c-20,20-47.2,31.2-76,31.2s-55.2-11.2-76-31.2c-3.2-3.2-8-3.2-11.2,0
	c-0.8,0.8-0.8,0.8-0.8,1.6c0,0.8,0.8,0.8,0.8,1.6c23.2,23.2,54.4,36,87.2,36s64-12.8,87.2-36c0.8-0.8,0.8-0.8,0.8-1.6
	c0-0.8-0.8-0.8-0.8-1.6C377,391.723,372.2,391.723,369,394.923z"/>
<g>
	<path style="fill:#7F0135;" d="M308.2,351.723c-31.2,0-60-0.8-82.4-1.6c20.8,14.4,46.4,23.2,73.6,23.2s52-8,72.8-22.4
		C353,351.723,331.4,351.723,308.2,351.723z"/>
	<path style="fill:#7F0135;" d="M324.2,114.123c0,4-3.2,7.2-7.2,7.2h-32c-4,0-7.2-3.2-7.2-7.2l0,0c0-4,3.2-7.2,7.2-7.2h32
		C320.2,106.923,324.2,110.123,324.2,114.123L324.2,114.123z"/>
</g>
<path style="fill:#BC043D;" d="M277,114.123L277,114.123c0-4,3.2-7.2,7.2-7.2h32c4,0,7.2,3.2,7.2,7.2l0,0"/>
<ellipse style="fill:#77B7C6;" cx="299.4" cy="74.123" rx="196.8" ry="20.8"/>
<path style="fill:#9BD3DD;" d="M102.6,74.123c0-11.2,88-20.8,196.8-20.8c108.8-0.8,196.8,8.8,196.8,20.8"/>
<circle style="fill:#BC043D;" cx="51.4" cy="244.523" r="13.6"/>
<g>
	<circle style="fill:#157B93;" cx="351.4" cy="179.723" r="16.8"/>
	<path style="fill:#157B93;" d="M376.2,245.323c0-28-11.2-50.4-25.6-50.4s-24.8,22.4-25.6,50.4H376.2z"/>
	<path style="fill:#157B93;" d="M25.8,197.323c5.6,5.6,25.6,35.2,20,41.6c-5.6,5.6-35.2-14.4-41.6-20c-5.6-5.6-5.6-15.2,0-21.6
		C10.6,191.723,20.2,191.723,25.8,197.323z"/>
	<path style="fill:#157B93;" d="M76.2,290.123c-5.6-5.6-25.6-35.2-20-41.6c5.6-5.6,35.2,14.4,41.6,20c5.6,5.6,5.6,15.2,0,21.6
		S81.8,296.523,76.2,290.123z"/>
	<path style="fill:#157B93;" d="M97.8,218.923c-5.6,5.6-35.2,25.6-41.6,20c-5.6-5.6,14.4-35.2,20-41.6c5.6-5.6,15.2-5.6,21.6,0
		C103.4,203.723,103.4,212.523,97.8,218.923z"/>
	<path style="fill:#157B93;" d="M5,268.523c5.6-5.6,35.2-25.6,41.6-20c5.6,5.6-14.4,35.2-20,41.6s-15.2,5.6-21.6,0
		S-1.4,274.923,5,268.523z"/>
</g>
<g>
</g>
<g>
</g>
<g>
</g>
<g>
</g>
<g>
</g>
<g>
</g>
<g>
</g>
<g>
</g>
<g>
</g>
<g>
</g>
<g>
</g>
<g>
</g>
<g>
</g>
<g>
</g>
<g>
</g>
</svg>
