<svg xmlns="http://www.w3.org/2000/svg" xmlns:xlink="http://www.w3.org/1999/xlink" version="1.1" x="0px" y="0px" viewBox="0 0 54 67.5" style="enable-background:new 0 0 54 54;" xml:space="preserve"><style type="text/css">
	.st0{display:none;}
	.st1{display:inline;fill-rule:evenodd;clip-rule:evenodd;}
	.st2{fill-rule:evenodd;clip-rule:evenodd;}
</style><g class="st0"><path class="st1" d="M27,9c-7.6,0-13,7.1-13,13c0,5.9,5.4,13,13,13s13-7.1,13-13C40,16.1,34.6,9,27,9z M41.4,31.3   c0,0-8.2,10.2-12.2,15.8c-1.5,2.1-2.1,3-4.3,0c-4-5.5-12.2-15.8-12.2-15.8h0.1c-1.7-2.6-2.7-6-2.7-9.4C10,12.4,17.6,5,27,5   c9.4,0,17,7.4,17,16.9C44,25.3,43,28.7,41.4,31.3z"/></g><g class="st0"><path class="st1" d="M47,23H7c-1.1,0-2-0.9-2-2c0-1.1,0.9-2,2-2h40c1.1,0,2,0.9,2,2C49,22.1,48.1,23,47,23z M37,11H7   c-1.1,0-2-0.9-2-2c0-1.1,0.9-2,2-2h30c1.1,0,2,0.9,2,2C39,10.1,38.1,11,37,11z M7,31h20c1.1,0,2,0.9,2,2c0,1.1-0.9,2-2,2H7   c-1.1,0-2-0.9-2-2C5,31.9,5.9,31,7,31z M7,43h36c1.1,0,2,0.9,2,2c0,1.1-0.9,2-2,2H7c-1.1,0-2-0.9-2-2C5,43.9,5.9,43,7,43z"/></g><g class="st0"><path class="st1" d="M45,37H9c-2.2,0-4-1.8-4-4V13c0-2.2,1.8-4,4-4h36c2.2,0,4,1.8,4,4v20C49,35.2,47.2,37,45,37z M45,15   c0-1.1-0.9-2-2-2H11c-1.1,0-2,0.9-2,2v16c0,1.1,0.9,2,2,2h32c1.1,0,2-0.9,2-2V15z M17,41h20c1.1,0,2,0.9,2,2c0,1.1-0.9,2-2,2H17   c-1.1,0-2-0.9-2-2C15,41.9,15.9,41,17,41z"/></g><g><path class="st2" d="M47,41c-1.1,0-2-0.9-2-2c0-3.3-2.7-6-6-6c-3.3,0-6,2.7-6,6v3l0,0v1c0,1.1-0.9,2-2,2c-1.1,0-2-0.9-2-2   c0-5.5-4.5-10-10-10c-5.5,0-10,4.5-10,10c0,1.1-0.9,2-2,2c-1.1,0-2-0.9-2-2v-0.7c0-0.4,0.3-2.1,0.4-2.4c0.9-3.9,3.4-7.1,6.8-9   C9.1,28.7,7,25.1,7,21c0-6.6,5.4-12,12-12s12,5.4,12,12c0,4.1-2.1,7.7-5.2,9.9c1.7,0.9,3.1,2.2,4.3,3.7c0.8-1.5,1.9-2.9,3.3-3.8   C31.9,29.3,31,27.2,31,25c0-4.4,3.6-8,8-8c4.4,0,8,3.6,8,8c0,2.2-0.9,4.3-2.4,5.7c1.7,1.2,3.1,2.9,3.8,4.9c0.3,0.6,0.5,1.8,0.6,2.4   v1C49,40.1,48.1,41,47,41z M27,21c0-4.4-3.6-8-8-8s-8,3.6-8,8c0,4.4,3.6,8,8,8S27,25.4,27,21z M39,21c-2.2,0-4,1.8-4,4   c0,2.2,1.8,4,4,4c2.2,0,4-1.8,4-4C43,22.8,41.2,21,39,21z"/></g><text x="0" y="69" fill="#000000" font-size="5px" font-weight="bold" font-family="'Helvetica Neue', Helvetica, Arial-Unicode, Arial, Sans-serif">Created by Michael Martinho</text><text x="0" y="74" fill="#000000" font-size="5px" font-weight="bold" font-family="'Helvetica Neue', Helvetica, Arial-Unicode, Arial, Sans-serif">from the Noun Project</text></svg>