<?xml version="1.0" encoding="iso-8859-1"?>
<!-- Generator: Adobe Illustrator 19.0.0, SVG Export Plug-In . SVG Version: 6.00 Build 0)  -->
<svg version="1.1" id="Capa_1" xmlns="http://www.w3.org/2000/svg" xmlns:xlink="http://www.w3.org/1999/xlink" x="0px" y="0px"
	 viewBox="0 0 512 512" style="enable-background:new 0 0 512 512;" xml:space="preserve">
<path style="fill:#ACB2BA;" d="M485.415,452.923H26.585c-5.908,0-9.846,4.923-9.846,9.846c0,5.908,4.923,9.846,9.846,9.846h457.846
	c5.908,0,9.846-4.923,9.846-9.846C495.262,457.846,490.338,452.923,485.415,452.923z"/>
<g>
	<path style="fill:#E8EAE8;" d="M167.385,80.738c-5.908,0-9.846,4.923-9.846,9.846v55.138c0,5.908,4.923,9.846,9.846,9.846
		c4.923,0,9.846-4.923,9.846-9.846V90.585C177.231,84.677,172.308,80.738,167.385,80.738z"/>
	<path style="fill:#E8EAE8;" d="M344.615,80.738c-5.908,0-9.846,4.923-9.846,9.846v55.138c0,5.908,4.923,9.846,9.846,9.846
		c4.923,0,9.846-4.923,9.846-9.846V90.585C354.462,84.677,350.523,80.738,344.615,80.738z"/>
</g>
<rect x="40.369" y="190.031" style="fill:#FFD15C;" width="431.262" height="282.585"/>
<polygon style="fill:#425A6B;" points="471.631,140.8 40.369,140.8 0,190.031 512,190.031 "/>
<g>
	<rect x="83.791" y="236.761" style="fill:#F26F5A;" width="53.169" height="53.169"/>
	<rect x="180.726" y="237.292" style="fill:#F26F5A;" width="53.169" height="53.169"/>
	<rect x="84.116" y="343.414" style="fill:#F26F5A;" width="53.169" height="53.169"/>
	<rect x="181.051" y="343.956" style="fill:#F26F5A;" width="53.169" height="53.169"/>
	<rect x="277.671" y="236.849" style="fill:#F26F5A;" width="53.169" height="53.169"/>
	<rect x="374.646" y="237.391" style="fill:#F26F5A;" width="53.169" height="53.169"/>
</g>
<rect x="294.4" y="343.631" style="fill:#425A6B;" width="60.062" height="129.969"/>
<rect x="352.492" y="343.631" style="fill:#344A5E;" width="58.092" height="129.969"/>
<rect x="121.108" y="38.4" style="fill:#56BFEB;" width="269.785" height="57.108"/>
<g>
</g>
<g>
</g>
<g>
</g>
<g>
</g>
<g>
</g>
<g>
</g>
<g>
</g>
<g>
</g>
<g>
</g>
<g>
</g>
<g>
</g>
<g>
</g>
<g>
</g>
<g>
</g>
<g>
</g>
</svg>
