<?xml version="1.0" encoding="iso-8859-1"?>
<!-- Generator: Adobe Illustrator 19.0.0, SVG Export Plug-In . SVG Version: 6.00 Build 0)  -->
<svg version="1.1" id="Capa_1" xmlns="http://www.w3.org/2000/svg" xmlns:xlink="http://www.w3.org/1999/xlink" x="0px" y="0px"
	 viewBox="0 0 512 512" style="enable-background:new 0 0 512 512;" xml:space="preserve">
<path style="fill:#CED6E0;" d="M502.154,422.892H9.846c-4.923,0-9.846,3.938-9.846,9.846c0,4.923,3.938,9.846,9.846,9.846h492.308
	c4.923,0,9.846-3.938,9.846-9.846C512,426.831,508.062,422.892,502.154,422.892z"/>
<rect x="143.754" y="107.815" style="fill:#8AD6F7;" width="225.477" height="333.785"/>
<g>
	<rect x="183.828" y="148.096" style="fill:#F3F3F3;" width="47.262" height="144.738"/>
	<rect x="281.502" y="147.84" style="fill:#F3F3F3;" width="47.262" height="144.738"/>
</g>
<polygon style="fill:#56BFEB;" points="388.923,69.415 123.077,69.415 143.754,107.815 368.246,107.815 "/>
<g>
	<polygon style="fill:#F26F5A;" points="489.354,441.6 368.246,441.6 368.246,233.846 429.292,165.908 489.354,233.846 	"/>
	<polygon style="fill:#F26F5A;" points="143.754,441.6 22.646,441.6 22.646,233.846 82.708,165.908 143.754,233.846 	"/>
</g>
<rect x="196.923" y="344.123" style="fill:#425A6B;" width="59.077" height="97.477"/>
<rect x="256" y="344.123" style="fill:#344A5E;" width="59.077" height="97.477"/>
<path style="fill:#FFD15C;" d="M429.292,374.646c-11.815,0-21.662,9.846-21.662,21.662V441.6h44.308v-45.292
	C450.954,384.492,441.108,374.646,429.292,374.646z"/>
<g>
	<rect x="406.646" y="259.446" style="fill:#F3F3F3;" width="44.308" height="45.292"/>
	<rect x="61.046" y="259.446" style="fill:#F3F3F3;" width="44.308" height="45.292"/>
</g>
<path style="fill:#FFD15C;" d="M82.708,374.646c-11.815,0-21.662,9.846-21.662,21.662V441.6h44.308v-45.292
	C105.354,384.492,95.508,374.646,82.708,374.646z"/>
<g>
</g>
<g>
</g>
<g>
</g>
<g>
</g>
<g>
</g>
<g>
</g>
<g>
</g>
<g>
</g>
<g>
</g>
<g>
</g>
<g>
</g>
<g>
</g>
<g>
</g>
<g>
</g>
<g>
</g>
</svg>
