<?xml version="1.0" encoding="iso-8859-1"?>
<!-- Generator: Adobe Illustrator 19.0.0, SVG Export Plug-In . SVG Version: 6.00 Build 0)  -->
<svg version="1.1" id="Capa_1" xmlns="http://www.w3.org/2000/svg" xmlns:xlink="http://www.w3.org/1999/xlink" x="0px" y="0px"
	 viewBox="0 0 512 512" style="enable-background:new 0 0 512 512;" xml:space="preserve">
<polygon style="fill:#ACB2BA;" points="256,40.369 104.369,185.108 407.631,185.108 "/>
<rect x="104.369" y="185.108" style="fill:#F3F3F3;" width="302.277" height="286.523"/>
<g>
	<rect x="407.631" y="185.108" style="fill:#E8EAE8;" width="104.369" height="286.523"/>
	<rect y="185.108" style="fill:#E8EAE8;" width="104.369" height="286.523"/>
</g>
<g>
	<rect x="151.631" y="384.985" style="fill:#425A6B;" width="75.815" height="86.646"/>
	<rect x="284.554" y="384.985" style="fill:#425A6B;" width="75.815" height="86.646"/>
</g>
<g>
	<rect x="160.492" y="226.462" style="fill:#56BFEB;" width="58.092" height="77.785"/>
	<rect x="293.415" y="226.462" style="fill:#56BFEB;" width="58.092" height="77.785"/>
</g>
<g>
	<path style="fill:#ACB2BA;" d="M459.815,216.615c-5.908,0-9.846,4.923-9.846,9.846v13.785c0,5.908,4.923,9.846,9.846,9.846
		c4.923,0,9.846-4.923,9.846-9.846v-13.785C469.662,220.554,465.723,216.615,459.815,216.615z"/>
	<path style="fill:#ACB2BA;" d="M459.815,279.631c-5.908,0-9.846,4.923-9.846,9.846v13.785c0,5.908,4.923,9.846,9.846,9.846
		c4.923,0,9.846-4.923,9.846-9.846v-13.785C469.662,283.569,465.723,279.631,459.815,279.631z"/>
	<path style="fill:#ACB2BA;" d="M459.815,342.646c-5.908,0-9.846,4.923-9.846,9.846v13.785c0,5.908,4.923,9.846,9.846,9.846
		c4.923,0,9.846-4.923,9.846-9.846v-13.785C469.662,346.585,465.723,342.646,459.815,342.646z"/>
	<path style="fill:#ACB2BA;" d="M459.815,405.662c-5.908,0-9.846,4.923-9.846,9.846v13.785c0,5.908,4.923,9.846,9.846,9.846
		c4.923,0,9.846-4.923,9.846-9.846v-13.785C469.662,409.6,465.723,405.662,459.815,405.662z"/>
	<path style="fill:#ACB2BA;" d="M52.185,216.615c-5.908,0-9.846,4.923-9.846,9.846v13.785c0,5.908,4.923,9.846,9.846,9.846
		s9.846-4.923,9.846-9.846v-13.785C63.015,220.554,58.092,216.615,52.185,216.615z"/>
	<path style="fill:#ACB2BA;" d="M52.185,279.631c-5.908,0-9.846,4.923-9.846,9.846v13.785c0,5.908,4.923,9.846,9.846,9.846
		s9.846-4.923,9.846-9.846v-13.785C63.015,283.569,58.092,279.631,52.185,279.631z"/>
	<path style="fill:#ACB2BA;" d="M52.185,342.646c-5.908,0-9.846,4.923-9.846,9.846v13.785c0,5.908,4.923,9.846,9.846,9.846
		s9.846-4.923,9.846-9.846v-13.785C63.015,346.585,58.092,342.646,52.185,342.646z"/>
	<path style="fill:#ACB2BA;" d="M52.185,405.662c-5.908,0-9.846,4.923-9.846,9.846v13.785c0,5.908,4.923,9.846,9.846,9.846
		s9.846-4.923,9.846-9.846v-13.785C63.015,409.6,58.092,405.662,52.185,405.662z"/>
</g>
<g>
</g>
<g>
</g>
<g>
</g>
<g>
</g>
<g>
</g>
<g>
</g>
<g>
</g>
<g>
</g>
<g>
</g>
<g>
</g>
<g>
</g>
<g>
</g>
<g>
</g>
<g>
</g>
<g>
</g>
</svg>
