<?xml version="1.0" encoding="iso-8859-1"?>
<!-- Generator: Adobe Illustrator 19.0.0, SVG Export Plug-In . SVG Version: 6.00 Build 0)  -->
<svg version="1.1" id="Capa_1" xmlns="http://www.w3.org/2000/svg" xmlns:xlink="http://www.w3.org/1999/xlink" x="0px" y="0px"
	 viewBox="0 0 512 512" style="enable-background:new 0 0 512 512;" xml:space="preserve">
<path style="fill:#FFD15C;" d="M348.062,63.015c-30.523-23.631-61.046,23.631-91.569,0c0-17.723,0-35.446,0-53.169
	c30.523,23.631,61.046-23.631,91.569,0C348.062,27.569,348.062,45.292,348.062,63.015z"/>
<path style="fill:#F5B54C;" d="M256.492,139.815c-5.908,0-9.846-3.938-9.846-9.846V9.846c0-5.908,3.938-9.846,9.846-9.846
	c5.908,0,9.846,3.938,9.846,9.846v120.123C266.338,135.877,262.4,139.815,256.492,139.815z"/>
<rect x="107.815" y="129.969" style="fill:#F26F5A;" width="296.369" height="382.031"/>
<g>
	<rect x="144.246" y="166.4" style="fill:#F3F3F3;" width="44.308" height="44.308"/>
	<rect x="234.831" y="166.4" style="fill:#F3F3F3;" width="44.308" height="44.308"/>
	<rect x="324.431" y="166.4" style="fill:#F3F3F3;" width="44.308" height="44.308"/>
	<rect x="144.246" y="253.046" style="fill:#F3F3F3;" width="44.308" height="44.308"/>
	<rect x="234.831" y="253.046" style="fill:#F3F3F3;" width="44.308" height="44.308"/>
	<rect x="324.431" y="253.046" style="fill:#F3F3F3;" width="44.308" height="44.308"/>
	<rect x="144.246" y="338.708" style="fill:#F3F3F3;" width="44.308" height="44.308"/>
	<rect x="234.831" y="338.708" style="fill:#F3F3F3;" width="44.308" height="44.308"/>
	<rect x="324.431" y="338.708" style="fill:#F3F3F3;" width="44.308" height="44.308"/>
</g>
<rect x="196.431" y="416.492" style="fill:#425A6B;" width="60.062" height="95.508"/>
<rect x="256.492" y="416.492" style="fill:#344A5E;" width="60.062" height="95.508"/>
<g>
</g>
<g>
</g>
<g>
</g>
<g>
</g>
<g>
</g>
<g>
</g>
<g>
</g>
<g>
</g>
<g>
</g>
<g>
</g>
<g>
</g>
<g>
</g>
<g>
</g>
<g>
</g>
<g>
</g>
</svg>
