<?xml version="1.0" encoding="iso-8859-1"?>
<!-- Generator: Adobe Illustrator 19.0.0, SVG Export Plug-In . SVG Version: 6.00 Build 0)  -->
<svg version="1.1" id="Capa_1" xmlns="http://www.w3.org/2000/svg" xmlns:xlink="http://www.w3.org/1999/xlink" x="0px" y="0px"
	 viewBox="0 0 512 512" style="enable-background:new 0 0 512 512;" xml:space="preserve">
<polygon style="fill:#E8EAE8;" points="127.015,0 127.015,106.338 356.431,106.338 356.431,166.4 441.108,166.4 441.108,0 "/>
<rect x="169.118" y="45.44" style="fill:#ACB2BA;" width="79.754" height="61.046"/>
<rect x="45.292" y="106.338" style="fill:#F3F3F3;" width="311.138" height="405.662"/>
<rect x="356.431" y="166.4" style="fill:#8AD6F7;" width="110.277" height="345.6"/>
<rect x="155.963" y="433.211" style="fill:#425A6B;" width="89.6" height="78.769"/>
<g>
	<rect x="103.473" y="152.655" style="fill:#56BFEB;" width="65.969" height="47.262"/>
	<rect x="233.777" y="152.32" style="fill:#56BFEB;" width="65.969" height="47.262"/>
	<rect x="102.567" y="241.329" style="fill:#56BFEB;" width="65.969" height="47.262"/>
	<rect x="232.871" y="241.024" style="fill:#56BFEB;" width="65.969" height="47.262"/>
	<rect x="102.646" y="330.043" style="fill:#56BFEB;" width="65.969" height="47.262"/>
	<rect x="232.95" y="329.718" style="fill:#56BFEB;" width="65.969" height="47.262"/>
</g>
<polygon style="fill:#ACB2BA;" points="319.015,45.292 319.015,106.338 356.431,106.338 356.431,130.954 398.769,130.954 
	398.769,45.292 "/>
<g>
	<rect x="356.46" y="212.48" style="fill:#425A6B;" width="64" height="76.8"/>
	<rect x="356.529" y="368.167" style="fill:#425A6B;" width="64" height="76.8"/>
</g>
<g>
</g>
<g>
</g>
<g>
</g>
<g>
</g>
<g>
</g>
<g>
</g>
<g>
</g>
<g>
</g>
<g>
</g>
<g>
</g>
<g>
</g>
<g>
</g>
<g>
</g>
<g>
</g>
<g>
</g>
</svg>
