<?xml version="1.0" encoding="iso-8859-1"?>
<!-- Generator: Adobe Illustrator 19.0.0, SVG Export Plug-In . SVG Version: 6.00 Build 0)  -->
<svg version="1.1" id="Capa_1" xmlns="http://www.w3.org/2000/svg" xmlns:xlink="http://www.w3.org/1999/xlink" x="0px" y="0px"
	 viewBox="0 0 512 512" style="enable-background:new 0 0 512 512;" xml:space="preserve">
<polygon style="fill:#344A5E;" points="407.631,64 512,178.215 248.123,178.215 124.062,64 "/>
<rect x="220.554" y="178.215" style="fill:#F5B54C;" width="259.938" height="269.785"/>
<polygon style="fill:#F26F5A;" points="248.123,178.215 124.062,64 0,178.215 "/>
<rect x="31.508" y="178.215" style="fill:#FFD15C;" width="189.046" height="269.785"/>
<path style="fill:#425A6B;" d="M126.031,338.708c-23.631,0-42.338,18.708-42.338,42.338v65.969h85.662v-65.969
	C168.369,358.4,149.662,338.708,126.031,338.708z"/>
<path style="fill:#FFFFFF;" d="M418.462,235.323H282.585c-5.908,0-9.846,4.923-9.846,9.846v135.877c0,5.908,4.923,9.846,9.846,9.846
	h135.877c5.908,0,9.846-4.923,9.846-9.846V245.169C428.308,239.262,424.369,235.323,418.462,235.323z M408.615,303.262h-48.246
	v-48.246h48.246V303.262z M340.677,255.015v48.246h-48.246v-48.246H340.677z M292.431,322.954h48.246V371.2h-48.246L292.431,322.954
	L292.431,322.954z M360.369,371.2v-48.246h48.246V371.2H360.369z"/>
<path style="fill:#F26F5A;" d="M126.031,212.677L126.031,212.677c-21.662,0-38.4,17.723-38.4,38.4s17.723,38.4,38.4,38.4l0,0
	c21.662,0,38.4-17.723,38.4-38.4S147.692,212.677,126.031,212.677z"/>
<g>
	<polygon style="fill:#425A6B;" points="244.185,92.554 349.538,92.554 335.754,64 229.415,64 	"/>
	<polygon style="fill:#425A6B;" points="308.185,112.246 176.246,112.246 195.938,129.969 320,129.969 	"/>
	<polygon style="fill:#425A6B;" points="396.8,149.662 290.462,149.662 305.231,178.215 411.569,178.215 	"/>
	<polygon style="fill:#425A6B;" points="451.939,112.246 331.815,112.246 343.631,129.969 468.677,129.969 	"/>
	<polygon style="fill:#425A6B;" points="372.185,92.554 433.231,92.554 407.631,64 357.415,64 	"/>
	<polygon style="fill:#425A6B;" points="267.815,149.662 217.6,149.662 248.123,178.215 283.569,178.215 	"/>
	<polygon style="fill:#425A6B;" points="419.446,149.662 434.215,178.215 512,178.215 486.4,149.662 	"/>
	<polygon style="fill:#425A6B;" points="221.538,92.554 206.769,64 124.062,64 154.585,92.554 	"/>
</g>
<g>
</g>
<g>
</g>
<g>
</g>
<g>
</g>
<g>
</g>
<g>
</g>
<g>
</g>
<g>
</g>
<g>
</g>
<g>
</g>
<g>
</g>
<g>
</g>
<g>
</g>
<g>
</g>
<g>
</g>
</svg>
