<?xml version="1.0" encoding="iso-8859-1"?>
<!-- Generator: Adobe Illustrator 19.0.0, SVG Export Plug-In . SVG Version: 6.00 Build 0)  -->
<svg version="1.1" id="Capa_1" xmlns="http://www.w3.org/2000/svg" xmlns:xlink="http://www.w3.org/1999/xlink" x="0px" y="0px"
	 viewBox="0 0 511.142 511.142" style="enable-background:new 0 0 511.142 511.142;" xml:space="preserve">
<path style="fill:#ACB2BA;" d="M499.2,464.309H10.831C4.923,464.309,0,469.232,0,475.14s4.923,10.831,10.831,10.831H499.2
	c5.908,0,10.831-4.923,10.831-10.831C511.015,469.232,506.092,464.309,499.2,464.309z"/>
<rect x="302.277" y="212.248" style="fill:#CED6E0;" width="176.246" height="273.723"/>
<path style="fill:#ACB2BA;" d="M501.169,201.417H282.585c-5.908,0-10.831,4.923-10.831,10.831c0,5.908,4.923,10.831,10.831,10.831
	h217.6c5.908,0,10.831-4.923,10.831-10.831C512,206.34,507.077,201.417,501.169,201.417z"/>
<rect x="32.492" y="36.002" style="fill:#E8EAE8;" width="269.785" height="450.954"/>
<g>
	<rect x="81.034" y="80.624" style="fill:#56BFEB;" width="60.062" height="208.738"/>
	<rect x="193.122" y="80.831" style="fill:#56BFEB;" width="60.062" height="208.738"/>
</g>
<path style="fill:#ACB2BA;" d="M313.108,24.186H21.662c-6.892,0-11.815,5.908-11.815,11.815s4.923,10.831,10.831,10.831h292.431
	c5.908,0,10.831-4.923,10.831-10.831S320,24.186,313.108,24.186z"/>
<g>
	<rect x="106.338" y="340.248" style="fill:#425A6B;" width="122.092" height="146.708"/>
	<rect x="356.431" y="384.555" style="fill:#425A6B;" width="66.954" height="102.4"/>
</g>
<rect x="362.338" y="259.509" style="fill:#56BFEB;" width="57.108" height="57.108"/>
<g>
</g>
<g>
</g>
<g>
</g>
<g>
</g>
<g>
</g>
<g>
</g>
<g>
</g>
<g>
</g>
<g>
</g>
<g>
</g>
<g>
</g>
<g>
</g>
<g>
</g>
<g>
</g>
<g>
</g>
</svg>
