<?xml version="1.0" encoding="iso-8859-1"?>
<!-- Generator: Adobe Illustrator 19.0.0, SVG Export Plug-In . SVG Version: 6.00 Build 0)  -->
<svg version="1.1" id="Capa_1" xmlns="http://www.w3.org/2000/svg" xmlns:xlink="http://www.w3.org/1999/xlink" x="0px" y="0px"
	 viewBox="0 0 512 512" style="enable-background:new 0 0 512 512;" xml:space="preserve">
<rect x="105.354" y="40.369" style="fill:#FFD15C;" width="301.292" height="471.631"/>
<rect x="160.492" style="fill:#425A6B;" width="192" height="40.369"/>
<g>
	<rect x="148.677" y="83.692" style="fill:#F26F5A;" width="41.354" height="63.015"/>
	<rect x="235.323" y="83.692" style="fill:#F26F5A;" width="41.354" height="63.015"/>
	<rect x="321.969" y="83.692" style="fill:#F26F5A;" width="41.354" height="63.015"/>
	<rect x="148.677" y="188.062" style="fill:#F26F5A;" width="41.354" height="63.015"/>
	<rect x="235.323" y="188.062" style="fill:#F26F5A;" width="41.354" height="63.015"/>
	<rect x="321.969" y="188.062" style="fill:#F26F5A;" width="41.354" height="63.015"/>
	<rect x="148.677" y="292.431" style="fill:#F26F5A;" width="41.354" height="63.015"/>
	<rect x="235.323" y="292.431" style="fill:#F26F5A;" width="41.354" height="63.015"/>
	<rect x="321.969" y="292.431" style="fill:#F26F5A;" width="41.354" height="63.015"/>
</g>
<g>
	<rect x="406.646" y="99.446" style="fill:#425A6B;" width="52.185" height="412.554"/>
	<rect x="53.169" y="99.446" style="fill:#425A6B;" width="52.185" height="412.554"/>
</g>
<path style="fill:#E8EAE8;" d="M193.969,418.462V512H256V398.769C234.338,398.769,212.677,405.662,193.969,418.462z"/>
<path style="fill:#CED6E0;" d="M318.031,418.462c-18.708-12.8-40.369-19.692-62.031-19.692V512h62.031V418.462z"/>
<g>
</g>
<g>
</g>
<g>
</g>
<g>
</g>
<g>
</g>
<g>
</g>
<g>
</g>
<g>
</g>
<g>
</g>
<g>
</g>
<g>
</g>
<g>
</g>
<g>
</g>
<g>
</g>
<g>
</g>
</svg>
