<?xml version="1.0" encoding="iso-8859-1"?>
<!-- Generator: Adobe Illustrator 19.0.0, SVG Export Plug-In . SVG Version: 6.00 Build 0)  -->
<svg version="1.1" id="Capa_1" xmlns="http://www.w3.org/2000/svg" xmlns:xlink="http://www.w3.org/1999/xlink" x="0px" y="0px"
	 viewBox="0 0 512.985 512.985" style="enable-background:new 0 0 512.985 512.985;" xml:space="preserve">
<g>
	<path style="fill:#CED6E0;" d="M224.985,0c-4.923,0-9.846,3.938-9.846,9.846v76.8c0,4.923,3.938,9.846,9.846,9.846
		c4.923,0,9.846-3.938,9.846-9.846v-76.8C234.831,3.938,230.892,0,224.985,0z"/>
	<path style="fill:#CED6E0;" d="M288,38.4c-4.923,0-9.846,3.938-9.846,9.846v38.4c0,4.923,3.938,9.846,9.846,9.846
		c4.923,0,9.846-3.938,9.846-9.846v-38.4C296.862,42.338,292.923,38.4,288,38.4z"/>
	<path style="fill:#CED6E0;" d="M407.138,493.292H105.846c-4.923,0-9.846,3.938-9.846,9.846c0,4.923,3.938,9.846,9.846,9.846
		h301.292c4.923,0,9.846-3.938,9.846-9.846S412.062,493.292,407.138,493.292z"/>
</g>
<rect x="129.477" y="127.015" style="fill:#F3F3F3;" width="253.046" height="384.985"/>
<rect x="210.215" y="415.508" style="fill:#ACB2BA;" width="92.554" height="96.492"/>
<rect x="157.046" y="85.662" style="fill:#F26F5A;" width="199.877" height="41.354"/>
<g>
	<path style="fill:#56BFEB;" d="M181.662,179.2h150.646c4.923,0,9.846-3.938,9.846-9.846c0-4.923-3.938-9.846-9.846-9.846H181.662
		c-4.923,0-9.846,3.938-9.846,9.846C171.815,174.277,175.754,179.2,181.662,179.2z"/>
	<path style="fill:#56BFEB;" d="M331.323,210.708H181.662c-4.923,0-9.846,3.938-9.846,9.846s3.938,9.846,9.846,9.846h150.646
		c4.923,0,9.846-3.938,9.846-9.846S337.231,210.708,331.323,210.708z"/>
	<path style="fill:#56BFEB;" d="M331.323,260.923H181.662c-4.923,0-9.846,3.938-9.846,9.846c0,5.908,3.938,9.846,9.846,9.846
		h150.646c4.923,0,9.846-3.938,9.846-9.846C342.154,264.862,337.231,260.923,331.323,260.923z"/>
	<path style="fill:#56BFEB;" d="M331.323,312.123H181.662c-4.923,0-9.846,3.938-9.846,9.846c0,4.923,3.938,9.846,9.846,9.846
		h150.646c4.923,0,9.846-3.938,9.846-9.846C341.169,316.062,337.231,312.123,331.323,312.123z"/>
	<path style="fill:#56BFEB;" d="M331.323,362.338H181.662c-4.923,0-9.846,3.938-9.846,9.846c0,4.923,3.938,9.846,9.846,9.846
		h150.646c4.923,0,9.846-3.938,9.846-9.846C341.169,366.277,337.231,362.338,331.323,362.338z"/>
</g>
<g>
</g>
<g>
</g>
<g>
</g>
<g>
</g>
<g>
</g>
<g>
</g>
<g>
</g>
<g>
</g>
<g>
</g>
<g>
</g>
<g>
</g>
<g>
</g>
<g>
</g>
<g>
</g>
<g>
</g>
</svg>
