<?xml version="1.0" encoding="iso-8859-1"?>
<!-- Generator: Adobe Illustrator 19.0.0, SVG Export Plug-In . SVG Version: 6.00 Build 0)  -->
<svg version="1.1" id="Capa_1" xmlns="http://www.w3.org/2000/svg" xmlns:xlink="http://www.w3.org/1999/xlink" x="0px" y="0px"
	 viewBox="0 0 512 512" style="enable-background:new 0 0 512 512;" xml:space="preserve">
<g>
	<path style="fill:#ACB2BA;" d="M502.154,435.2H369.231c-5.908,0-9.846,3.938-9.846,9.846s3.938,9.846,9.846,9.846h132.923
		c5.908,0,9.846-3.938,9.846-9.846C512,439.138,508.062,435.2,502.154,435.2z"/>
	<path style="fill:#ACB2BA;" d="M142.769,435.2H9.846C3.938,435.2,0,439.138,0,445.046s3.938,9.846,9.846,9.846h132.923
		c5.908,0,9.846-3.938,9.846-9.846C152.615,439.138,148.677,435.2,142.769,435.2z"/>
</g>
<g>
	<rect x="320.985" y="263.877" style="fill:#425A6B;" width="48.246" height="191.015"/>
	<rect x="142.769" y="263.877" style="fill:#425A6B;" width="48.246" height="191.015"/>
</g>
<polygon style="fill:#F26F5A;" points="256,57.108 142.769,187.077 142.769,263.877 369.231,263.877 369.231,187.077 "/>
<g>
	<polygon style="fill:#425A6B;" points="142.769,187.077 184.123,139.815 28.554,139.815 0.985,187.077 	"/>
	<polygon style="fill:#425A6B;" points="369.231,187.077 369.231,187.077 511.015,187.077 483.446,139.815 327.877,139.815 	"/>
</g>
<g>
	<rect x="369.231" y="187.077" style="fill:#CED6E0;" width="121.108" height="267.815"/>
	<rect x="21.662" y="187.077" style="fill:#CED6E0;" width="121.108" height="267.815"/>
</g>
<g>
	<rect x="409.6" y="384.985" style="fill:#425A6B;" width="39.385" height="39.385"/>
	<rect x="409.6" y="218.585" style="fill:#425A6B;" width="39.385" height="39.385"/>
	<rect x="408.615" y="300.308" style="fill:#425A6B;" width="41.354" height="41.354"/>
	<rect x="63.015" y="384.985" style="fill:#425A6B;" width="39.385" height="39.385"/>
	<rect x="63.015" y="218.585" style="fill:#425A6B;" width="39.385" height="39.385"/>
	<rect x="62.031" y="300.308" style="fill:#425A6B;" width="41.354" height="41.354"/>
</g>
<circle style="fill:#FFD15C;" cx="256" cy="183.138" r="43.323"/>
<g>
</g>
<g>
</g>
<g>
</g>
<g>
</g>
<g>
</g>
<g>
</g>
<g>
</g>
<g>
</g>
<g>
</g>
<g>
</g>
<g>
</g>
<g>
</g>
<g>
</g>
<g>
</g>
<g>
</g>
</svg>
