<?xml version="1.0" encoding="iso-8859-1"?>
<!-- Generator: Adobe Illustrator 19.0.0, SVG Export Plug-In . SVG Version: 6.00 Build 0)  -->
<svg version="1.1" id="Capa_1" xmlns="http://www.w3.org/2000/svg" xmlns:xlink="http://www.w3.org/1999/xlink" x="0px" y="0px"
	 viewBox="0 0 512 512" style="enable-background:new 0 0 512 512;" xml:space="preserve">
<path style="fill:#ACB2BA;" d="M502.154,463.754H9.846c-4.923,0-9.846-3.938-9.846-9.846c0-5.908,3.938-9.846,9.846-9.846h492.308
	c4.923,0,9.846,3.938,9.846,9.846C512,459.815,508.062,463.754,502.154,463.754z"/>
<polygon style="fill:#F26F5A;" points="389.908,160.492 256,48.246 122.092,160.492 "/>
<rect x="135.877" y="160.492" style="fill:#E8EAE8;" width="240.246" height="303.262"/>
<g>
	<rect x="376.123" y="246.154" style="fill:#FFD15C;" width="110.277" height="217.6"/>
	<rect x="25.6" y="246.154" style="fill:#FFD15C;" width="110.277" height="217.6"/>
</g>
<rect x="207.754" y="367.262" style="fill:#425A6B;" width="96.492" height="96.492"/>
<g>
	<path style="fill:#56BFEB;" d="M178.215,239.262c-4.923,0-9.846-3.938-9.846-9.846v-27.569c0-4.923,3.938-9.846,9.846-9.846
		c4.923,0,9.846,3.938,9.846,9.846v27.569C188.062,235.323,183.138,239.262,178.215,239.262z"/>
	<path style="fill:#56BFEB;" d="M227.446,239.262c-4.923,0-9.846-3.938-9.846-9.846v-27.569c0-4.923,3.938-9.846,9.846-9.846
		s9.846,3.938,9.846,9.846v27.569C236.308,235.323,232.369,239.262,227.446,239.262z"/>
	<path style="fill:#56BFEB;" d="M275.692,239.262c-4.923,0-9.846-3.938-9.846-9.846v-27.569c0-4.923,3.938-9.846,9.846-9.846
		c4.923,0,9.846,3.938,9.846,9.846v27.569C285.538,235.323,281.6,239.262,275.692,239.262z"/>
	<path style="fill:#56BFEB;" d="M324.923,239.262c-4.923,0-9.846-3.938-9.846-9.846v-27.569c0-4.923,3.938-9.846,9.846-9.846
		s9.846,3.938,9.846,9.846v27.569C334.769,235.323,330.831,239.262,324.923,239.262z"/>
	<path style="fill:#56BFEB;" d="M178.215,317.046c-4.923,0-9.846-3.938-9.846-9.846v-27.569c0-4.923,3.938-9.846,9.846-9.846
		c4.923,0,9.846,3.938,9.846,9.846V307.2C188.062,313.108,183.138,317.046,178.215,317.046z"/>
	<path style="fill:#56BFEB;" d="M227.446,317.046c-4.923,0-9.846-3.938-9.846-9.846v-27.569c0-4.923,3.938-9.846,9.846-9.846
		s9.846,3.938,9.846,9.846V307.2C236.308,313.108,232.369,317.046,227.446,317.046z"/>
	<path style="fill:#56BFEB;" d="M275.692,317.046c-4.923,0-9.846-3.938-9.846-9.846v-27.569c0-4.923,3.938-9.846,9.846-9.846
		c4.923,0,9.846,3.938,9.846,9.846V307.2C285.538,313.108,281.6,317.046,275.692,317.046z"/>
	<path style="fill:#56BFEB;" d="M324.923,317.046c-4.923,0-9.846-3.938-9.846-9.846v-27.569c0-4.923,3.938-9.846,9.846-9.846
		s9.846,3.938,9.846,9.846V307.2C334.769,313.108,330.831,317.046,324.923,317.046z"/>
</g>
<g>
	<path style="fill:#F26F5A;" d="M431.262,314.092c-4.923,0-9.846-3.938-9.846-9.846v-24.615c0-4.923,3.938-9.846,9.846-9.846
		c5.908,0,9.846,3.938,9.846,9.846v24.615C441.108,310.154,436.185,314.092,431.262,314.092z"/>
	<path style="fill:#F26F5A;" d="M431.262,377.108c-4.923,0-9.846-3.938-9.846-9.846v-24.615c0-4.923,3.938-9.846,9.846-9.846
		c5.908,0,9.846,3.938,9.846,9.846v24.615C441.108,373.169,436.185,377.108,431.262,377.108z"/>
	<path style="fill:#F26F5A;" d="M431.262,440.123c-4.923,0-9.846-3.938-9.846-9.846v-24.615c0-4.923,3.938-9.846,9.846-9.846
		c5.908,0,9.846,3.938,9.846,9.846v24.615C441.108,435.2,436.185,440.123,431.262,440.123z"/>
	<path style="fill:#F26F5A;" d="M80.738,314.092c-4.923,0-9.846-3.938-9.846-9.846v-24.615c0-4.923,3.938-9.846,9.846-9.846
		c4.923,0,9.846,3.938,9.846,9.846v24.615C90.585,310.154,85.662,314.092,80.738,314.092z"/>
	<path style="fill:#F26F5A;" d="M80.738,377.108c-4.923,0-9.846-3.938-9.846-9.846v-24.615c0-4.923,3.938-9.846,9.846-9.846
		c4.923,0,9.846,3.938,9.846,9.846v24.615C90.585,373.169,85.662,377.108,80.738,377.108z"/>
	<path style="fill:#F26F5A;" d="M80.738,440.123c-4.923,0-9.846-3.938-9.846-9.846v-24.615c0-4.923,3.938-9.846,9.846-9.846
		c4.923,0,9.846,3.938,9.846,9.846v24.615C90.585,435.2,85.662,440.123,80.738,440.123z"/>
</g>
<g>
</g>
<g>
</g>
<g>
</g>
<g>
</g>
<g>
</g>
<g>
</g>
<g>
</g>
<g>
</g>
<g>
</g>
<g>
</g>
<g>
</g>
<g>
</g>
<g>
</g>
<g>
</g>
<g>
</g>
</svg>
