<?xml version="1.0" encoding="iso-8859-1"?>
<!-- Generator: Adobe Illustrator 19.0.0, SVG Export Plug-In . SVG Version: 6.00 Build 0)  -->
<svg version="1.1" id="Capa_1" xmlns="http://www.w3.org/2000/svg" xmlns:xlink="http://www.w3.org/1999/xlink" x="0px" y="0px"
	 viewBox="0 0 512 512" style="enable-background:new 0 0 512 512;" xml:space="preserve">
<path style="fill:#ACB2BA;" d="M502.154,443.077H9.846c-4.923,0-9.846,3.938-9.846,9.846c0,4.923,3.938,9.846,9.846,9.846h492.308
	c4.923,0,9.846-3.938,9.846-9.846C512,448,508.062,443.077,502.154,443.077z"/>
<rect x="23.631" y="197.908" style="fill:#CED6E0;" width="463.754" height="264.862"/>
<rect x="146.708" y="197.908" style="fill:#F3F3F3;" width="219.569" height="264.862"/>
<polygon style="fill:#FFD15C;" points="408.615,197.908 256,49.231 103.385,197.908 "/>
<g>
	<polygon style="fill:#425A6B;" points="434.215,104.369 312.123,104.369 408.615,197.908 488.369,197.908 	"/>
	<polygon style="fill:#425A6B;" points="77.785,104.369 23.631,197.908 103.385,197.908 199.877,104.369 	"/>
</g>
<g>
	<rect x="345.6" y="197.908" style="fill:#F26F5A;" width="39.385" height="264.862"/>
	<rect x="127.015" y="197.908" style="fill:#F26F5A;" width="39.385" height="264.862"/>
</g>
<rect x="215.631" y="348.554" style="fill:#425A6B;" width="80.738" height="114.215"/>
<circle style="fill:#F5B54C;" cx="256" cy="135.877" r="25.6"/>
<g>
	<path style="fill:#ACB2BA;" d="M439.138,241.231c-4.923,0-9.846,3.938-9.846,9.846V268.8c0,4.923,3.938,9.846,9.846,9.846
		s9.846-3.938,9.846-9.846v-17.723C448.985,246.154,444.062,241.231,439.138,241.231z"/>
	<path style="fill:#ACB2BA;" d="M439.138,316.062c-4.923,0-9.846,3.938-9.846,9.846v17.723c0,4.923,3.938,9.846,9.846,9.846
		s9.846-3.938,9.846-9.846v-17.723C448.985,320,444.062,316.062,439.138,316.062z"/>
	<path style="fill:#ACB2BA;" d="M439.138,389.908c-4.923,0-9.846,3.938-9.846,9.846v17.723c0,4.923,3.938,9.846,9.846,9.846
		s9.846-3.938,9.846-9.846v-17.723C448.985,393.846,444.062,389.908,439.138,389.908z"/>
	<path style="fill:#ACB2BA;" d="M72.862,241.231c-4.923,0-9.846,3.938-9.846,9.846V268.8c0,4.923,3.938,9.846,9.846,9.846
		s9.846-3.938,9.846-9.846v-17.723C82.708,246.154,78.769,241.231,72.862,241.231z"/>
	<path style="fill:#ACB2BA;" d="M72.862,316.062c-4.923,0-9.846,3.938-9.846,9.846v17.723c0,4.923,3.938,9.846,9.846,9.846
		s9.846-3.938,9.846-9.846v-17.723C82.708,320,78.769,316.062,72.862,316.062z"/>
	<path style="fill:#ACB2BA;" d="M72.862,389.908c-4.923,0-9.846,3.938-9.846,9.846v17.723c0,4.923,3.938,9.846,9.846,9.846
		s9.846-3.938,9.846-9.846v-17.723C82.708,393.846,78.769,389.908,72.862,389.908z"/>
</g>
<g>
</g>
<g>
</g>
<g>
</g>
<g>
</g>
<g>
</g>
<g>
</g>
<g>
</g>
<g>
</g>
<g>
</g>
<g>
</g>
<g>
</g>
<g>
</g>
<g>
</g>
<g>
</g>
<g>
</g>
</svg>
