<?xml version="1.0" encoding="iso-8859-1"?>
<!-- Generator: Adobe Illustrator 19.0.0, SVG Export Plug-In . SVG Version: 6.00 Build 0)  -->
<svg version="1.1" id="Capa_1" xmlns="http://www.w3.org/2000/svg" xmlns:xlink="http://www.w3.org/1999/xlink" x="0px" y="0px"
	 viewBox="0 0 512 512" style="enable-background:new 0 0 512 512;" xml:space="preserve">
<polygon style="fill:#ACB2BA;" points="416.492,275.2 256,122.585 95.508,275.2 56.123,234.831 256,44.8 455.877,234.831 "/>
<g>
	<polygon style="fill:#425A6B;" points="95.508,275.2 56.123,234.831 90.585,202.338 0,202.338 0,466.215 117.169,466.215 
		117.169,255.508 	"/>
	<polygon style="fill:#425A6B;" points="421.415,202.338 455.877,234.831 416.492,275.2 394.831,255.508 394.831,466.215 
		512,466.215 512,202.338 	"/>
</g>
<polygon style="fill:#E8EAE8;" points="256,122.585 117.169,255.508 117.169,466.215 394.831,466.215 394.831,255.508 "/>
<path style="fill:#F26F5A;" d="M163.446,271.262v53.169c51.2-27.569,133.908-27.569,184.123,0v-53.169
	C297.354,243.692,214.646,243.692,163.446,271.262z"/>
<path style="fill:#FFD15C;" d="M181.169,317.538V467.2h150.646V317.538C286.523,299.815,225.477,299.815,181.169,317.538z"/>
<g>
	<rect x="432.246" y="388.431" style="fill:#F3F3F3;" width="42.338" height="40.369"/>
	<rect x="432.246" y="306.708" style="fill:#F3F3F3;" width="42.338" height="40.369"/>
	<rect x="37.415" y="388.431" style="fill:#F3F3F3;" width="42.338" height="40.369"/>
	<rect x="37.415" y="306.708" style="fill:#F3F3F3;" width="42.338" height="40.369"/>
</g>
<g>
</g>
<g>
</g>
<g>
</g>
<g>
</g>
<g>
</g>
<g>
</g>
<g>
</g>
<g>
</g>
<g>
</g>
<g>
</g>
<g>
</g>
<g>
</g>
<g>
</g>
<g>
</g>
<g>
</g>
</svg>
